<?xml version="1.0" encoding="UTF-8"?>
<svg version="1.1" xmlns="http://www.w3.org/2000/svg" width="146" height="150">
<path d="M0 0 C12.79120881 9.77626559 20.69105814 21.74266575 23.71484375 37.68359375 C25.42658096 51.58852755 25.42658096 51.58852755 21.5546875 57.33984375 C18.70627728 60.38148782 15.39598771 62.8373443 12.046875 65.30078125 C11.37140625 65.86152344 10.6959375 66.42226562 10 67 C10 67.66 10 68.32 10 69 C11.11375 68.38125 12.2275 67.7625 13.375 67.125 C14.00148438 66.77695313 14.62796875 66.42890625 15.2734375 66.0703125 C17.1612614 64.99102726 17.1612614 64.99102726 19 63 C20.32 63 21.64 63 23 63 C22.896875 62.319375 22.79375 61.63875 22.6875 60.9375 C23.13555589 56.72577459 25.39300676 54.23080948 28 51 C31.15856443 51.59720756 31.92386937 51.91963989 34.25 54.375 C37.03819012 58.84046074 36.29760075 63.94078731 36 69 C35.8509288 71.0745356 35.8509288 71.0745356 37 73 C37.56682346 79.70960793 36.76961737 84.34557395 33 90 C33.66 90 34.32 90 35 90 C37.19656797 94.39313594 36.29044809 99.91566048 35.0625 104.5 C34 107 34 107 33 108 C32.75385312 110.97199571 32.61596425 113.9430797 32.4765625 116.921875 C31.94779876 120.33716867 31.17586296 122.31742923 29 125 C27.68 125 26.36 125 25 125 C24.67 124.34 24.34 123.68 24 123 C23.42894531 123.20496094 22.85789062 123.40992188 22.26953125 123.62109375 C17.89377714 124.35164134 14.44853063 121.45991308 11 119 C6.21709753 114.60266741 3.16185465 110.10406019 1 104 C0.401875 104.66 -0.19625 105.32 -0.8125 106 C-4.55194033 109.67830507 -8.67919077 112.69493632 -13.01708984 115.63232422 C-14.48314023 116.64350549 -15.93150292 117.68044052 -17.36962891 118.73095703 C-31.21168978 128.76341846 -42.41858024 133.5997211 -59.71582031 131.45751953 C-63.52036423 130.69547215 -65.95414667 129.43393727 -68.2421875 126.296875 C-69.32727035 123.00806719 -69.7300772 119.67482231 -70.125 116.25 C-70.21136719 115.55261719 -70.29773438 114.85523437 -70.38671875 114.13671875 C-70.59771846 112.42527668 -70.79975501 110.71273371 -71 109 C-71.43828125 109.37511719 -71.8765625 109.75023438 -72.328125 110.13671875 C-79.4801691 115.90777872 -87.79108929 119.97233895 -97 121 C-98 120 -98 120 -98.02734375 117.34765625 C-97.96751709 115.1600815 -97.90502318 112.97257805 -97.83984375 110.78515625 C-97.69828666 107.85814898 -97.69828666 107.85814898 -100 106 C-101.97028302 100.46874674 -103.47891362 94.90660136 -103 89 C-101.02 88.01 -101.02 88.01 -99 87 C-99 86.34 -99 85.68 -99 85 C-99.66 85 -100.32 85 -101 85 C-103.19129444 80.61741112 -102.35169838 74.78309801 -102 70 C-101.06295743 67.9697411 -100.07074592 65.96303418 -99 64 C-98.90199768 61.65202769 -98.99340282 59.39207852 -99.1875 57.05078125 C-99 55 -99 55 -97.70703125 53.234375 C-95.01006652 51.2841671 -92.25721718 51.94479293 -89 52 C-85.22320225 51.20106202 -83.53621819 50.62000228 -81 47.6875 C-79.70536657 44.20817267 -80.52877289 43.32961926 -82 40 C-83.03462506 28.61912437 -79.97176746 17.04913384 -73 8 C-54.15295741 -14.12478913 -23.41565794 -15.0092913 0 0 Z M-44 46 C-44.20625 47.2375 -44.4125 48.475 -44.625 49.75 C-44.74101563 50.44609375 -44.85703125 51.1421875 -44.9765625 51.859375 C-45.00609946 54.55708423 -44.5948966 55.81799654 -43 58 C-37.30201667 60.53243703 -31.18426583 61.41228439 -25 61 C-24.91878076 59.39667209 -24.86070866 57.79215974 -24.8125 56.1875 C-24.77769531 55.29417969 -24.74289063 54.40085937 -24.70703125 53.48046875 C-24.80053843 50.98352208 -24.80053843 50.98352208 -26.24609375 49.25 C-31.20796374 45.71370068 -38.12348634 45.74993559 -44 46 Z M-71 54 C-72.16977494 56.34872531 -72.16977494 56.34872531 -72 59 C-72.020625 60.258125 -72.04125 61.51625 -72.0625 62.8125 C-72.041875 63.864375 -72.02125 64.91625 -72 66 C-69.12635209 66.41746608 -69.12635209 66.41746608 -66 66 C-63.34939854 62.46586472 -62.29714733 58.95430508 -61.3125 54.6875 C-61.06113281 53.61886719 -60.80976562 52.55023438 -60.55078125 51.44921875 C-60.36902344 50.64097656 -60.18726563 49.83273438 -60 49 C-64.50344688 49 -67.55981203 51.20002638 -71 54 Z M-91 54 C-91.66 55.32 -92.32 56.64 -93 58 C-90.69 58 -88.38 58 -86 58 C-87.65 56.68 -89.3 55.36 -91 54 Z M-9.9375 65.5 C-11.42771509 69.00638846 -11.68363662 72.20363944 -12 76 C-10.8553125 76.433125 -10.8553125 76.433125 -9.6875 76.875 C-7 78 -7 78 -4 80 C-3.34 75.38 -2.68 70.76 -2 66 C-1.34 66 -0.68 66 0 66 C0 65.34 0 64.68 0 64 C-5.34133257 63.4073498 -5.34133257 63.4073498 -9.9375 65.5 Z M-89 65 C-88 67 -88 67 -88 67 Z M-54 65 C-56.37113483 69.96284034 -58.43174347 74.45949887 -59 80 C-55.99905008 80.20518234 -55.99905008 80.20518234 -53.5 78.875 C-52.675 78.58625 -51.85 78.2975 -51 78 C-50.01 78.66 -49.02 79.32 -48 80 C-46.68 80 -45.36 80 -44 80 C-43.12245809 77.79561167 -43.12245809 77.79561167 -43 75 C-45.29207345 70.68032311 -47.97090705 67.75674781 -52 65 C-52.66 65 -53.32 65 -54 65 Z M26 68 C24.515 69.98 24.515 69.98 23 72 C26.93075644 71.42547254 26.93075644 71.42547254 30 69 C28.68 68.67 27.36 68.34 26 68 Z M27 72 C27 74.97 27 77.94 27 81 C29.08954032 76.82091936 29.16552619 76.19589427 28 72 C27.67 72 27.34 72 27 72 Z M-84 73 C-83.34 74.65 -82.68 76.3 -82 78 C-81.67 77.34 -81.34 76.68 -81 76 C-81.99 75.01 -82.98 74.02 -84 73 Z M6 74 C7 76 7 76 7 76 Z M5 77 C6 79 6 79 6 79 Z M-81 78 C-80 80 -80 80 -80 80 Z M-16 79 C-16 81.64 -16 84.28 -16 87 C-14.35173889 84.03312999 -13.55728913 81.34373475 -13 78 C-14.2236068 77.9254644 -14.2236068 77.9254644 -16 79 Z M-80 80 C-79.71125 80.5775 -79.4225 81.155 -79.125 81.75 C-78.75375 82.4925 -78.3825 83.235 -78 84 C-77.4740625 84.9590625 -77.4740625 84.9590625 -76.9375 85.9375 C-76 88 -76 88 -75.5625 90.5 C-74.92902951 93.31542441 -73.85369817 94.82391954 -72 97 C-70.40809533 93.81619067 -71.71250402 90.71923676 -72.4375 87.375 C-72.58509766 86.66859375 -72.73269531 85.9621875 -72.88476562 85.234375 C-73.25049493 83.48831251 -73.62447121 81.74398116 -74 80 C-74.61875 80.185625 -75.2375 80.37125 -75.875 80.5625 C-78 81 -78 81 -80 80 Z M4 80 C5 82 5 82 5 82 Z M-95 84 C-94.67 84.99 -94.34 85.98 -94 87 C-94 86.01 -94 85.02 -94 84 C-94.33 84 -94.66 84 -95 84 Z M3 84 C2.67 86.97 2.34 89.94 2 93 C3.32 92.34 4.64 91.68 6 91 C8.58825308 90.80910932 11.0417449 90.72030741 13.625 90.75 C14.6459375 90.73839844 14.6459375 90.73839844 15.6875 90.7265625 C20.74655878 90.74655878 20.74655878 90.74655878 23 93 C23.33 91.35 23.66 89.7 24 88 C17.4 88 10.8 88 4 88 C3.67 86.68 3.34 85.36 3 84 Z M27 86 C26.67 86.66 26.34 87.32 26 88 C27.32 87.67 28.64 87.34 30 87 C29.01 86.67 28.02 86.34 27 86 Z M-17 89 C-18.19838209 91.32854463 -18.19838209 91.32854463 -19 94 C-18.01 95.485 -18.01 95.485 -17 97 C-16.67 94.36 -16.34 91.72 -16 89 C-16.33 89 -16.66 89 -17 89 Z M-90 92 C-89 96 -89 96 -89 96 Z M22 94 C21.67 94.66 21.34 95.32 21 96 C21.33 96.99 21.66 97.98 22 99 C21.40206327 101.35188447 20.74118205 103.68925595 20 106 C21.98 106.66 23.96 107.32 26 108 C25.505 107.401875 25.01 106.80375 24.5 106.1875 C23 104 23 104 23 101 C23.66 100.67 24.32 100.34 25 100 C24.34 98.02 23.68 96.04 23 94 C22.67 94 22.34 94 22 94 Z M1 95 C1 96.98 1 98.96 1 101 C1.33 101 1.66 101 2 101 C2 99.02 2 97.04 2 95 C1.67 95 1.34 95 1 95 Z M-19 97 C-18 99 -18 99 -18 99 Z M-92 100 C-91.67 101.65 -91.34 103.3 -91 105 C-90.01 105.33 -89.02 105.66 -88 106 C-88.33 104.35 -88.66 102.7 -89 101 C-89.99 100.67 -90.98 100.34 -92 100 Z M-72 101 C-72 102.65 -72 104.3 -72 106 C-71.67 106 -71.34 106 -71 106 C-71 104.35 -71 102.7 -71 101 C-71.33 101 -71.66 101 -72 101 Z M-87 106 C-85.31622777 109.89459074 -85.31622777 109.89459074 -83 112 C-82.67 111.34 -82.34 110.68 -82 110 C-79.9375 108.875 -79.9375 108.875 -78 108 C-78 107.67 -78 107.34 -78 107 C-80.97 106.67 -83.94 106.34 -87 106 Z M14 108 C14 109.98 14 111.96 14 114 C14.33 114 14.66 114 15 114 C15 112.02 15 110.04 15 108 C14.67 108 14.34 108 14 108 Z " fill="#F9F9F9" transform="translate(105,13)"/>
<path d="M0 0 C3.15856443 0.59720756 3.92386937 0.91963989 6.25 3.375 C9.03819012 7.84046074 8.29760075 12.94078731 8 18 C7.8509288 20.0745356 7.8509288 20.0745356 9 22 C9.56682346 28.70960793 8.76961737 33.34557395 5 39 C5.66 39 6.32 39 7 39 C9.19656797 43.39313594 8.29044809 48.91566048 7.0625 53.5 C6 56 6 56 5 57 C4.75385312 59.97199571 4.61596425 62.9430797 4.4765625 65.921875 C3.94779876 69.33716867 3.17586296 71.31742923 1 74 C-0.32 74 -1.64 74 -3 74 C-3.33 73.34 -3.66 72.68 -4 72 C-4.57105469 72.20496094 -5.14210938 72.40992188 -5.73046875 72.62109375 C-10.10622286 73.35164134 -13.55146937 70.45991308 -17 68 C-21.78290247 63.60266741 -24.83814535 59.10406019 -27 53 C-27.598125 53.66 -28.19625 54.32 -28.8125 55 C-32.55194033 58.67830507 -36.67919077 61.69493632 -41.01708984 64.63232422 C-42.48314023 65.64350549 -43.93150292 66.68044052 -45.36962891 67.73095703 C-59.21168978 77.76341846 -70.41858024 82.5997211 -87.71582031 80.45751953 C-91.53300768 79.69293968 -93.94524033 78.41066018 -96.2734375 75.296875 C-97.31924106 71.99078632 -97.46899113 68.68869546 -97.625 65.25 C-97.66367188 64.55261719 -97.70234375 63.85523438 -97.7421875 63.13671875 C-97.83598624 61.42489182 -97.91906174 59.71248318 -98 58 C-97.34 58 -96.68 58 -96 58 C-96 56.02 -96 54.04 -96 52 C-96.99 52 -97.98 52 -99 52 C-99.625 48.625 -99.625 48.625 -100 45 C-98 43 -98 43 -95.73193359 42.8046875 C-94.32935303 42.83949219 -94.32935303 42.83949219 -92.8984375 42.875 C-91.85751953 42.89175781 -90.81660156 42.90851563 -89.74414062 42.92578125 C-88.63232422 42.95027344 -87.52050781 42.97476563 -86.375 43 C-76.36619604 43.12618549 -66.87822823 42.58959994 -57 41 C-56.67 41 -56.34 41 -56 41 C-53.96953752 40.67770437 -51.93915026 40.35485213 -49.91015625 40.0234375 C-49.27980469 40.01570313 -48.64945313 40.00796875 -48 40 C-47.34 40.66 -46.68 41.32 -46 42 C-44.14500725 38.6932738 -43.02171999 36.15746993 -42.5 32.375 C-41.98987833 28.93167871 -41.31561013 27.51696753 -39 25 C-36.13275314 25.57344937 -35.1385485 25.8614515 -33 28 C-32.86722656 27.22914062 -32.73445313 26.45828125 -32.59765625 25.6640625 C-32.42105469 24.66117188 -32.24445313 23.65828125 -32.0625 22.625 C-31.88847656 21.62726563 -31.71445313 20.62953125 -31.53515625 19.6015625 C-31 17 -31 17 -30 15 C-29.34 15 -28.68 15 -28 15 C-28.495 13.02 -28.495 13.02 -29 11 C-27.20841511 10.97303635 -25.41671527 10.95362083 -23.625 10.9375 C-22.62726563 10.92589844 -21.62953125 10.91429688 -20.6015625 10.90234375 C-18 11 -18 11 -16 12 C-16.33 12.61875 -16.66 13.2375 -17 13.875 C-18.14193235 15.91018344 -18.14193235 15.91018344 -18 18 C-16.88625 17.38125 -15.7725 16.7625 -14.625 16.125 C-13.99851562 15.77695313 -13.37203125 15.42890625 -12.7265625 15.0703125 C-10.8387386 13.99102726 -10.8387386 13.99102726 -9 12 C-7.68 12 -6.36 12 -5 12 C-5.103125 11.319375 -5.20625 10.63875 -5.3125 9.9375 C-4.86444411 5.72577459 -2.60699324 3.23080948 0 0 Z M-2 17 C-3.485 18.98 -3.485 18.98 -5 21 C-1.06924356 20.42547254 -1.06924356 20.42547254 2 18 C0.68 17.67 -0.64 17.34 -2 17 Z M-1 21 C-1 23.97 -1 26.94 -1 30 C1.08954032 25.82091936 1.16552619 25.19589427 0 21 C-0.33 21 -0.66 21 -1 21 Z M-22 23 C-21 25 -21 25 -21 25 Z M-23 26 C-22 28 -22 28 -22 28 Z M-24 29 C-23 31 -23 31 -23 31 Z M-25 33 C-25.33 35.97 -25.66 38.94 -26 42 C-24.68 41.34 -23.36 40.68 -22 40 C-19.41174692 39.80910932 -16.9582551 39.72030741 -14.375 39.75 C-13.3540625 39.73839844 -13.3540625 39.73839844 -12.3125 39.7265625 C-7.25344122 39.74655878 -7.25344122 39.74655878 -5 42 C-4.67 40.35 -4.34 38.7 -4 37 C-10.6 37 -17.2 37 -24 37 C-24.33 35.68 -24.66 34.36 -25 33 Z M-1 35 C-1.33 35.66 -1.66 36.32 -2 37 C-0.68 36.67 0.64 36.34 2 36 C1.01 35.67 0.02 35.34 -1 35 Z M-6 43 C-6.33 43.66 -6.66 44.32 -7 45 C-6.67 45.99 -6.34 46.98 -6 48 C-6.59793673 50.35188447 -7.25881795 52.68925595 -8 55 C-6.02 55.66 -4.04 56.32 -2 57 C-2.495 56.401875 -2.99 55.80375 -3.5 55.1875 C-5 53 -5 53 -5 50 C-4.34 49.67 -3.68 49.34 -3 49 C-3.66 47.02 -4.32 45.04 -5 43 C-5.33 43 -5.66 43 -6 43 Z M-27 44 C-27 45.98 -27 47.96 -27 50 C-26.67 50 -26.34 50 -26 50 C-26 48.02 -26 46.04 -26 44 C-26.33 44 -26.66 44 -27 44 Z M-47 46 C-46 48 -46 48 -46 48 Z M-14 57 C-14 58.98 -14 60.96 -14 63 C-13.67 63 -13.34 63 -13 63 C-13 61.02 -13 59.04 -13 57 C-13.33 57 -13.66 57 -14 57 Z " fill="#F4F4F4" transform="translate(133,64)"/>
<path d="M0 0 C11.55635676 -0.43506284 22.02260412 6.0843929 30.5 13.4375 C42.29830544 24.92274924 48.73890335 38.5659679 49.375 55.125 C49.26933237 60.6619838 48.37801489 63.61771042 45 68 C40.69230769 72 40.69230769 72 38 72 C37.87625 71.360625 37.7525 70.72125 37.625 70.0625 C37.41875 69.381875 37.2125 68.70125 37 68 C36.01 67.505 36.01 67.505 35 67 C35.99 66.67 36.98 66.34 38 66 C38 64.68 38 63.36 38 62 C37.0925 62.474375 36.185 62.94875 35.25 63.4375 C29.01490836 66.43514021 21.66157441 67.46557074 14.9375 65.3515625 C10.46921794 63.01768303 6.55835181 59.34404703 4 55 C3.67 53.02 3.34 51.04 3 49 C8.28 48.01 13.56 47.02 19 46 C18.67 45.01 18.34 44.02 18 43 C18.99 42.34 19.98 41.68 21 41 C19.68 40.01 18.36 39.02 17 38 C17.33 37.01 17.66 36.02 18 35 C18.99 34.505 18.99 34.505 20 34 C19.62875 33.0925 19.2575 32.185 18.875 31.25 C18 28 18 28 18.875 25.625 C19.24625 25.08875 19.6175 24.5525 20 24 C19.21625 23.484375 18.4325 22.96875 17.625 22.4375 C14.44405752 19.4837677 13.88506307 17.18393452 13 13 C11.35 12.67 9.7 12.34 8 12 C8.33 10.68 8.66 9.36 9 8 C8.01 8 7.02 8 6 8 C6.33 6.68 6.66 5.36 7 4 C6.21625 3.71125 5.4325 3.4225 4.625 3.125 C2 2 2 2 0 0 Z " fill="#F0F0F0" transform="translate(80,4)"/>
<path d="M0 0 C-0.33 0.99 -0.66 1.98 -1 3 C-1.66 3 -2.32 3 -3 3 C-3 3.66 -3 4.32 -3 5 C-3.66 5 -4.32 5 -5 5 C-5 5.66 -5 6.32 -5 7 C-3.68 7 -2.36 7 -1 7 C-1 7.66 -1 8.32 -1 9 C-2.98 9.66 -4.96 10.32 -7 11 C-7 11.33 -7 11.66 -7 12 C-8.65 12.33 -10.3 12.66 -12 13 C-12 13.66 -12 14.32 -12 15 C-13.65 15.66 -15.3 16.32 -17 17 C-16.34 17.33 -15.68 17.66 -15 18 C-15 18.66 -15 19.32 -15 20 C-15.66 20 -16.32 20 -17 20 C-16.505 21.485 -16.505 21.485 -16 23 C-18.5654594 25.5654594 -20.47686668 25.54046087 -24 26 C-23.505 27.485 -23.505 27.485 -23 29 C-23.33 29.66 -23.66 30.32 -24 31 C-22.68 31.99 -21.36 32.98 -20 34 C-20.33 34.99 -20.66 35.98 -21 37 C-21.99 37.33 -22.98 37.66 -24 38 C-23.505 39.98 -23.505 39.98 -23 42 C-23.66 42 -24.32 42 -25 42 C-24.690625 42.70125 -24.38125 43.4025 -24.0625 44.125 C-22.96697322 47.08936657 -22.43577008 49.87698108 -22 53 C-17.3537047 53.31679286 -15.60845929 52.7936459 -12 50 C-9.3125 49.75 -9.3125 49.75 -7 50 C-6.67 50.33 -6.34 50.66 -6 51 C-4.65252916 51.23075082 -3.29622435 51.41153063 -1.9375 51.5625 C-0.638125 51.706875 0.66125 51.85125 2 52 C2 52.33 2 52.66 2 53 C0.02 53 -1.96 53 -4 53 C-4 53.99 -4 54.98 -4 56 C-6.31 56 -8.62 56 -11 56 C-11.020625 57.258125 -11.04125 58.51625 -11.0625 59.8125 C-11.07410156 60.52019531 -11.08570313 61.22789063 -11.09765625 61.95703125 C-10.94462749 65.15839295 -10.26562673 66.73437327 -8 69 C-8.66 69 -9.32 69 -10 69 C-10 69.66 -10 70.32 -10 71 C-13.16115776 69.63016497 -13.9927092 69.0109362 -16 66 C-16.547939 63.00701243 -16.73592274 60.03688851 -17 57 C-22.94 56.67 -28.88 56.34 -35 56 C-35 56.99 -35 57.98 -35 59 C-36.62449243 60.70779973 -38.29220027 62.37550757 -40 64 C-41.21693876 66.43387753 -41.31959896 68.41838846 -41.5625 71.125 C-41.64628906 72.03507812 -41.73007812 72.94515625 -41.81640625 73.8828125 C-41.90728516 74.93082031 -41.90728516 74.93082031 -42 76 C-43.32 75.67 -44.64 75.34 -46 75 C-46.33 75.99 -46.66 76.98 -47 78 C-47.99 78.495 -47.99 78.495 -49 79 C-49.66 79.99 -50.32 80.98 -51 82 C-51.66 81.67 -52.32 81.34 -53 81 C-53.02578125 81.62648438 -53.0515625 82.25296875 -53.078125 82.8984375 C-53.13484375 83.71570313 -53.1915625 84.53296875 -53.25 85.375 C-53.29640625 86.18710938 -53.3428125 86.99921875 -53.390625 87.8359375 C-54 90 -54 90 -56.046875 91.2890625 C-56.69140625 91.52367188 -57.3359375 91.75828125 -58 92 C-57.67 91.01 -57.34 90.02 -57 89 C-56.34 89 -55.68 89 -55 89 C-55 84.38 -55 79.76 -55 75 C-55.66 74.67 -56.32 74.34 -57 74 C-55.68 74.33 -54.36 74.66 -53 75 C-52.67 76.32 -52.34 77.64 -52 79 C-50.76732652 77.99163938 -50.76732652 77.99163938 -50.90234375 75.93359375 C-50.91394531 75.10988281 -50.92554688 74.28617187 -50.9375 73.4375 C-50.94652344 72.61121094 -50.95554687 71.78492187 -50.96484375 70.93359375 C-50.97644531 70.29550781 -50.98804688 69.65742187 -51 69 C-51.66 69 -52.32 69 -53 69 C-53 68.34 -53 67.68 -53 67 C-54.32 66.34 -55.64 65.68 -57 65 C-56.67 64.01 -56.34 63.02 -56 62 C-55.05125 61.71125 -54.1025 61.4225 -53.125 61.125 C-49.88266548 60.24608914 -49.88266548 60.24608914 -48 57.6875 C-46.70536657 54.20817267 -47.52877289 53.32961926 -49 50 C-50.03462506 38.61912437 -46.97176746 27.04913384 -40 18 C-29.76309323 5.98276161 -15.84404523 -0.31066755 0 0 Z " fill="#F8F8F8" transform="translate(72,3)"/>
<path d="M0 0 C0.05423638 1.91635217 0.09289963 3.83314925 0.125 5.75 C0.14820313 6.81734375 0.17140625 7.8846875 0.1953125 8.984375 C-0.00187015 12.02887515 -0.12088234 13.60889087 -2 16 C-4.57421875 17.01171875 -4.57421875 17.01171875 -7.6875 17.6875 C-9.20923828 18.03361328 -9.20923828 18.03361328 -10.76171875 18.38671875 C-18.07139582 19.77106049 -25.01646432 20.15363422 -32.4375 20.125 C-33.43587891 20.12886719 -34.43425781 20.13273437 -35.46289062 20.13671875 C-41.06999413 20.12934583 -46.45429435 19.83284733 -52 19 C-52 18.34 -52 17.68 -52 17 C-51.34 17 -50.68 17 -50 17 C-50 15.02 -50 13.04 -50 11 C-50.99 11 -51.98 11 -53 11 C-53.625 7.625 -53.625 7.625 -54 4 C-52 2 -52 2 -49.73193359 1.8046875 C-48.79687988 1.82789062 -47.86182617 1.85109375 -46.8984375 1.875 C-45.85751953 1.89175781 -44.81660156 1.90851563 -43.74414062 1.92578125 C-42.63232422 1.95027344 -41.52050781 1.97476563 -40.375 2 C-30.36619604 2.12618549 -20.87822823 1.58959994 -11 0 C-10.67 0 -10.34 0 -10 0 C-6.30581799 -1.231394 -3.7943739 -0.64432764 0 0 Z " fill="#6C6C6C" transform="translate(87,105)"/>
<path d="M0 0 C3.15856443 0.59720756 3.92386937 0.91963989 6.25 3.375 C9.03819012 7.84046074 8.29760075 12.94078731 8 18 C7.8509288 20.0745356 7.8509288 20.0745356 9 22 C9.4037617 26.77941172 9.70972005 31.87090278 7 36 C4.5625 36.9375 4.5625 36.9375 2 37 C1.01 36.34 0.02 35.68 -1 35 C-0.91621094 34.10796875 -0.83242187 33.2159375 -0.74609375 32.296875 C-0.64425781 31.12640625 -0.54242188 29.9559375 -0.4375 28.75 C-0.33308594 27.58984375 -0.22867188 26.4296875 -0.12109375 25.234375 C-0.01801913 22.48128523 -0.13786527 20.580018 -1 18 C-2.65 19.65 -4.3 21.3 -6 23 C-5.525625 23.33 -5.05125 23.66 -4.5625 24 C-2.2000791 27.02389875 -1.8654691 30.20939394 -2 34 C-3.35772948 36.21524283 -4.26715119 36.75908648 -6.69921875 37.55859375 C-9.70206036 38.1346907 -12.56886708 38.13189872 -15.625 38.125 C-16.77226563 38.12757812 -17.91953125 38.13015625 -19.1015625 38.1328125 C-22 38 -22 38 -24 37 C-26.00656151 32.06077167 -23.89281919 27.66117149 -22 23 C-21.71640625 22.29101562 -21.4328125 21.58203125 -21.140625 20.8515625 C-19.72428181 18.55243006 -18.52113399 17.99512468 -16.0625 16.9375 C-13.74966023 15.93022586 -12.22182382 15.23910879 -10.49609375 13.37890625 C-9 12 -9 12 -5 12 C-5.103125 11.319375 -5.20625 10.63875 -5.3125 9.9375 C-4.86444411 5.72577459 -2.60699324 3.23080948 0 0 Z " fill="#F5F5F5" transform="translate(133,64)"/>
<path d="M0 0 C0.66 0 1.32 0 2 0 C2 0.66 2 1.32 2 2 C1.34 2 0.68 2 0 2 C0.11306697 3.95894361 0.11306697 3.95894361 1 6 C3.27227005 7.23942003 5.43395073 7.88881175 7.96875 8.38671875 C11.84920571 9.17584127 13.60925859 9.60925859 16.5 12.5 C18 15 18 15 18 17 C10.86874907 20.72769935 5.05019043 21.80044507 -3 21 C-8.48912782 19.27425148 -13.10795072 14.91066087 -16 10 C-16.6640625 6.7734375 -16.6640625 6.7734375 -17 4 C-15.85660156 3.79503906 -14.71320313 3.59007812 -13.53515625 3.37890625 C-12.04423324 3.1069769 -10.55334984 2.83483026 -9.0625 2.5625 C-8.30775391 2.42779297 -7.55300781 2.29308594 -6.77539062 2.15429688 C-3.08046826 1.75727966 -3.08046826 1.75727966 0 0 Z " fill="#D6D6D6" transform="translate(100,49)"/>
<path d="M0 0 C1.093125 0.226875 2.18625 0.45375 3.3125 0.6875 C2.3225 1.1825 2.3225 1.1825 1.3125 1.6875 C0.9825 2.6775 0.6525 3.6675 0.3125 4.6875 C0.87839844 4.80867188 1.44429687 4.92984375 2.02734375 5.0546875 C2.76082031 5.22226563 3.49429687 5.38984375 4.25 5.5625 C4.98089844 5.72492188 5.71179688 5.88734375 6.46484375 6.0546875 C8.3125 6.6875 8.3125 6.6875 9.3125 8.6875 C9.5625 12.1875 9.5625 12.1875 9.3125 15.6875 C8.3225 16.3475 7.3325 17.0075 6.3125 17.6875 C5.9825 16.0375 5.6525 14.3875 5.3125 12.6875 C4.6525 12.6875 3.9925 12.6875 3.3125 12.6875 C4.3025 14.1725 4.3025 14.1725 5.3125 15.6875 C5.53634596 19.44696416 5.18679377 23.02536381 4.3125 26.6875 C1.8125 29.25 1.8125 29.25 -0.6875 30.6875 C-1.0175 31.3475 -1.3475 32.0075 -1.6875 32.6875 C-4.6875 32.6875 -4.6875 32.6875 -7.6875 31.6875 C-9.71291848 25.61124455 -8.87595489 19.77742407 -7.12109375 13.73828125 C-6.4772652 10.6931462 -6.68592368 7.75800297 -6.91015625 4.66796875 C-6.6875 2.6875 -6.6875 2.6875 -5.4140625 0.90625 C-3.6875 -0.3125 -3.6875 -0.3125 0 0 Z " fill="#FAFAFA" transform="translate(12.6875,65.3125)"/>
<path d="M0 0 C2 2 2 2 2 4 C3.32 4.66 4.64 5.32 6 6 C6 6.66 6 7.32 6 8 C6.474375 8.37125 6.94875 8.7425 7.4375 9.125 C9.86579201 12.03895041 10.13248556 15.2670246 10 19 C8.64227052 21.21524283 7.73284881 21.75908648 5.30078125 22.55859375 C2.29793964 23.1346907 -0.56886708 23.13189872 -3.625 23.125 C-4.77226563 23.12757812 -5.91953125 23.13015625 -7.1015625 23.1328125 C-10 23 -10 23 -12 22 C-14.00656151 17.06077167 -11.89281919 12.66117149 -10 8 C-9.72027344 7.29488281 -9.44054687 6.58976562 -9.15234375 5.86328125 C-7.70211117 3.51832892 -6.3671666 2.87549459 -3.875 1.75 C-3.15054688 1.41484375 -2.42609375 1.0796875 -1.6796875 0.734375 C-1.12539062 0.49203125 -0.57109375 0.2496875 0 0 Z M7 3 C7.66 3 8.32 3 9 3 C9 3.66 9 4.32 9 5 C8.01 5.33 7.02 5.66 6 6 C6.33 5.01 6.66 4.02 7 3 Z " fill="#FCFCFC" transform="translate(121,79)"/>
<path d="M0 0 C1.46566406 -0.00386719 1.46566406 -0.00386719 2.9609375 -0.0078125 C3.98445313 -0.00007813 5.00796875 0.00765625 6.0625 0.015625 C7.08601563 0.00789063 8.10953125 0.00015625 9.1640625 -0.0078125 C10.14117187 -0.00523438 11.11828125 -0.00265625 12.125 0 C13.02347656 0.00225586 13.92195313 0.00451172 14.84765625 0.00683594 C17.0625 0.265625 17.0625 0.265625 19.0625 2.265625 C19.20747985 4.84626629 19.24927545 7.31506384 19.1875 9.890625 C19.17847656 10.59703125 19.16945313 11.3034375 19.16015625 12.03125 C19.13657603 13.77618598 19.10070461 15.52094795 19.0625 17.265625 C17.4125 17.265625 15.7625 17.265625 14.0625 17.265625 C14.0625 16.275625 14.0625 15.285625 14.0625 14.265625 C13.4025 14.265625 12.7425 14.265625 12.0625 14.265625 C12.0625 15.255625 12.0625 16.245625 12.0625 17.265625 C11.299375 17.08 10.53625 16.894375 9.75 16.703125 C6.97282625 16.03743327 6.97282625 16.03743327 4.0625 17.265625 C0.875 16.328125 0.875 16.328125 -1.9375 15.265625 C-2.2675 12.955625 -2.5975 10.645625 -2.9375 8.265625 C-3.9275 8.265625 -4.9175 8.265625 -5.9375 8.265625 C-6.5625 5.390625 -6.5625 5.390625 -6.9375 2.265625 C-4.40695663 -0.26491837 -3.50201118 0.00879271 0 0 Z " fill="#929292" transform="translate(39.9375,106.734375)"/>
<path d="M0 0 C0.66 0 1.32 0 2 0 C1.83628906 0.69480469 1.67257812 1.38960938 1.50390625 2.10546875 C0.95904004 5.2352816 0.90261517 8.13798083 0.9375 11.3125 C0.95103516 12.91544922 0.95103516 12.91544922 0.96484375 14.55078125 C0.97644531 15.35902344 0.98804688 16.16726562 1 17 C1.99 17 2.98 17 4 17 C4 17.66 4 18.32 4 19 C4.99 19 5.98 19 7 19 C7 17.68 7 16.36 7 15 C9.71631546 15.90543849 12.34771188 16.92474806 15 18 C14.71905418 19.8141927 14.42493567 21.62635001 14.125 23.4375 C13.96257813 24.44683594 13.80015625 25.45617187 13.6328125 26.49609375 C13.42398437 27.32238281 13.21515625 28.14867188 13 29 C12.34 29.33 11.68 29.66 11 30 C15.12168689 31.62950412 17.70700357 32.26264601 22 31 C21.67 31.99 21.34 32.98 21 34 C18.44692804 35.25024577 15.82974719 35.80219243 13 36 C10.5 34.625 10.5 34.625 9 33 C8.67 34.98 8.34 36.96 8 39 C8.66 39.33 9.32 39.66 10 40 C9.36578125 40.22429687 8.7315625 40.44859375 8.078125 40.6796875 C5.77983843 41.83785757 5.77983843 41.83785757 5.171875 44.3828125 C5.03265625 45.28773437 4.8934375 46.19265625 4.75 47.125 C4.52570312 48.49011719 4.52570312 48.49011719 4.296875 49.8828125 C4.19890625 50.58148438 4.1009375 51.28015625 4 52 C3.67 52 3.34 52 3 52 C3.02320313 51.22914063 3.04640625 50.45828125 3.0703125 49.6640625 C3.08835937 48.66117188 3.10640625 47.65828125 3.125 46.625 C3.14820313 45.62726563 3.17140625 44.62953125 3.1953125 43.6015625 C3.27216848 40.83737827 3.27216848 40.83737827 1 39 C-0.97028302 33.46874674 -2.47891362 27.90660136 -2 22 C-0.68 21.34 0.64 20.68 2 20 C2 19.34 2 18.68 2 18 C1.34 18 0.68 18 0 18 C-1.41880263 15.16239474 -1.1320472 12.72317025 -1.125 9.5625 C-1.12757812 8.40878906 -1.13015625 7.25507812 -1.1328125 6.06640625 C-1 3 -1 3 0 0 Z " fill="#EDEDED" transform="translate(4,80)"/>
<path d="M0 0 C0.66 0.33 1.32 0.66 2 1 C2.59355614 3.64860427 2.74209269 6.29197322 3 9 C7.6462953 9.31679286 9.39154071 8.7936459 13 6 C15.6875 5.75 15.6875 5.75 18 6 C18.495 6.495 18.495 6.495 19 7 C20.34747084 7.23075082 21.70377565 7.41153063 23.0625 7.5625 C24.361875 7.706875 25.66125 7.85125 27 8 C27 8.33 27 8.66 27 9 C25.02 9 23.04 9 21 9 C21 9.99 21 10.98 21 12 C18.69 12 16.38 12 14 12 C13.979375 13.258125 13.95875 14.51625 13.9375 15.8125 C13.92589844 16.52019531 13.91429688 17.22789063 13.90234375 17.95703125 C14.05537251 21.15839295 14.73437327 22.73437327 17 25 C16.34 25 15.68 25 15 25 C15 25.66 15 26.32 15 27 C11.83884224 25.63016497 11.0072908 25.0109362 9 22 C8.5859375 19.73828125 8.5859375 19.73828125 8.375 17.3125 C8.30023438 16.50425781 8.22546875 15.69601563 8.1484375 14.86328125 C8.09945312 14.24839844 8.05046875 13.63351563 8 13 C7.44538086 12.94465088 6.89076172 12.88930176 6.31933594 12.83227539 C3.7959083 12.57871893 1.27296117 12.32065495 -1.25 12.0625 C-2.55904297 11.93198242 -2.55904297 11.93198242 -3.89453125 11.79882812 C-4.73886719 11.71181641 -5.58320312 11.62480469 -6.453125 11.53515625 C-7.22817383 11.456604 -8.00322266 11.37805176 -8.80175781 11.29711914 C-10.92623038 11.00997086 -12.93296525 10.56205228 -15 10 C-15 9.34 -15 8.68 -15 8 C-6.83431953 7.72781065 -6.83431953 7.72781065 -3 10 C-2.01 10 -1.02 10 0 10 C-0.185625 8.906875 -0.37125 7.81375 -0.5625 6.6875 C-1 3 -1 3 0 0 Z " fill="#B3B3B3" transform="translate(47,47)"/>
<path d="M0 0 C0.33 0 0.66 0 1 0 C1.04898438 0.99902344 1.09796875 1.99804688 1.1484375 3.02734375 C1.22320312 4.31769531 1.29796875 5.60804687 1.375 6.9375 C1.44460937 8.22527344 1.51421875 9.51304688 1.5859375 10.83984375 C1.72257812 11.88269531 1.85921875 12.92554687 2 14 C2.66 14.33 3.32 14.66 4 15 C4 12.36 4 9.72 4 7 C4.33 7 4.66 7 5 7 C5 9.64 5 12.28 5 15 C6.32 15.33 7.64 15.66 9 16 C9 14.02 9 12.04 9 10 C9.33 10 9.66 10 10 10 C10.33 11.65 10.66 13.3 11 15 C12.32 15.33 13.64 15.66 15 16 C15 15.01 15 14.02 15 13 C15.66 13 16.32 13 17 13 C17 13.99 17 14.98 17 16 C18.65 16 20.3 16 22 16 C22 13.69 22 11.38 22 9 C24.70879335 7.64560332 27.00933268 7.93498549 30 8 C30 7.34 30 6.68 30 6 C31.98 6.33 33.96 6.66 36 7 C36 9.97 36 12.94 36 16 C29.83670749 17.0891653 23.81141594 17.14911157 17.5625 17.125 C16.56412109 17.12886719 15.56574219 17.13273437 14.53710938 17.13671875 C8.93000587 17.12934583 3.54570565 16.83284733 -2 16 C-2 15.34 -2 14.68 -2 14 C-1.34 14 -0.68 14 0 14 C0 12.02 0 10.04 0 8 C-0.99 7.67 -1.98 7.34 -3 7 C-2.01 7 -1.02 7 0 7 C0 4.69 0 2.38 0 0 Z " fill="#767676" transform="translate(37,108)"/>
<path d="M0 0 C0 1.65 0 3.3 0 5 C-4.17737474 6.59138085 -7.53160785 7.21278058 -12 7 C-12 7.66 -12 8.32 -12 9 C-14.64 9.33 -17.28 9.66 -20 10 C-20.33 7.03 -20.66 4.06 -21 1 C-5.15625 -2.65625 -5.15625 -2.65625 0 0 Z " fill="#494949" transform="translate(79,107)"/>
<path d="M0 0 C0.33 0.99 0.66 1.98 1 3 C2.32 3 3.64 3 5 3 C9.11984021 9.30093209 9.11984021 9.30093209 8.625 12.1875 C4.7357431 16.52551731 0.75977647 18.45144986 -5 19 C-6.32457359 16.35085281 -5.84321797 14.95385152 -5.3125 12.0625 C-5.16425781 11.18722656 -5.01601562 10.31195313 -4.86328125 9.41015625 C-3.81173599 6.47439414 -2.44144043 5.82486484 0 4 C0 2.68 0 1.36 0 0 Z " fill="#FBFBFB" transform="translate(13,115)"/>
<path d="M0 0 C3.44413867 2.29609245 3.59766605 3.2640524 5 7 C6.56329383 9.60417048 8.20213777 12.14755657 9.85546875 14.6953125 C11 17 11 17 10 20 C4.66666667 17.33333333 -0.66666667 14.66666667 -6 12 C-5.38125 11.690625 -4.7625 11.38125 -4.125 11.0625 C-0.92315624 7.95482812 -0.68447192 4.29596194 0 0 Z " fill="#FCFCFC" transform="translate(19,84)"/>
<path d="M0 0 C2.6875 0.3125 2.6875 0.3125 5 1 C5.33 2.32 5.66 3.64 6 5 C4.68 5 3.36 5 2 5 C1.3012307 6.76641683 0.61633417 8.53832664 -0.0625 10.3125 C-0.44535156 11.29863281 -0.82820313 12.28476563 -1.22265625 13.30078125 C-2.29389848 16.06233263 -2.29389848 16.06233263 -1 19 C-0.34 19.33 0.32 19.66 1 20 C-0.8125 20.625 -0.8125 20.625 -3 21 C-3.99 20.34 -4.98 19.68 -6 19 C-6.60453388 13.15617247 -5.80523298 8.20642005 -3 3 C-1.5625 1.25 -1.5625 1.25 0 0 Z " fill="#EDEDED" transform="translate(49,74)"/>
<path d="M0 0 C0 2.31 0 4.62 0 7 C-3.64793184 8.27253436 -7.1936543 9.32829194 -11 10 C-11 7.69 -11 5.38 -11 3 C-9.73160474 2.49384702 -8.46016898 1.99530901 -7.1875 1.5 C-6.12595703 1.08234375 -6.12595703 1.08234375 -5.04296875 0.65625 C-3 0 -3 0 0 0 Z " fill="#E3E3E3" transform="translate(85,112)"/>
<path d="M0 0 C0.66 0.33 1.32 0.66 2 1 C2.59355614 3.64860427 2.74209269 6.29197322 3 9 C5.31 9 7.62 9 10 9 C10 9.66 10 10.32 10 11 C3.0328888 14.4835556 -7.74700795 11.83371357 -15 10 C-15 9.34 -15 8.68 -15 8 C-6.83431953 7.72781065 -6.83431953 7.72781065 -3 10 C-2.01 10 -1.02 10 0 10 C-0.185625 8.906875 -0.37125 7.81375 -0.5625 6.6875 C-1 3 -1 3 0 0 Z " fill="#686868" transform="translate(47,47)"/>
<path d="M0 0 C3.63 0.66 7.26 1.32 11 2 C12 7 12 7 11 10 C9.07421875 11.203125 9.07421875 11.203125 6.6875 12.25 C5.90761719 12.60578125 5.12773437 12.9615625 4.32421875 13.328125 C1.75392773 14.0711335 0.48616571 13.88750996 -2 13 C-1.05125 12.608125 -0.1025 12.21625 0.875 11.8125 C4.43437401 9.74806307 4.72113551 8.73821927 6 5 C6.99 4.67 7.98 4.34 9 4 C7.88625 3.896875 6.7725 3.79375 5.625 3.6875 C3.830625 3.3471875 3.830625 3.3471875 2 3 C1.34 2.01 0.68 1.02 0 0 Z " fill="#DFDFDF" transform="translate(17,117)"/>
<path d="M0 0 C0.66 0 1.32 0 2 0 C2.9861046 4.06768149 3.30405501 7.81924364 3 12 C1.5 14.4375 1.5 14.4375 0 16 C-0.66 15.67 -1.32 15.34 -2 15 C-2.02578125 15.62648438 -2.0515625 16.25296875 -2.078125 16.8984375 C-2.13484375 17.71570313 -2.1915625 18.53296875 -2.25 19.375 C-2.29640625 20.18710938 -2.3428125 20.99921875 -2.390625 21.8359375 C-3 24 -3 24 -5.046875 25.2890625 C-5.69140625 25.52367188 -6.3359375 25.75828125 -7 26 C-6.505 24.515 -6.505 24.515 -6 23 C-5.34 23 -4.68 23 -4 23 C-4 18.38 -4 13.76 -4 9 C-4.66 8.67 -5.32 8.34 -6 8 C-4.02 8.495 -4.02 8.495 -2 9 C-1.67 10.32 -1.34 11.64 -1 13 C0.23267348 11.99163938 0.23267348 11.99163938 0.09765625 9.93359375 C0.08605469 9.10988281 0.07445312 8.28617188 0.0625 7.4375 C0.05347656 6.61121094 0.04445313 5.78492187 0.03515625 4.93359375 C0.02355469 4.29550781 0.01195312 3.65742187 0 3 C-0.66 2.67 -1.32 2.34 -2 2 C-1.34 1.34 -0.68 0.68 0 0 Z " fill="#D5D5D5" transform="translate(21,69)"/>
<path d="M0 0 C6.51791392 -0.3540919 11.17521449 -0.03901852 17 3 C17 3.66 17 4.32 17 5 C14.72975032 5.08097324 12.45867925 5.13917704 10.1875 5.1875 C8.29064453 5.23970703 8.29064453 5.23970703 6.35546875 5.29296875 C3 5 3 5 1.05078125 3.61328125 C0 2 0 2 0 0 Z " fill="#FBFBFB" transform="translate(38,137)"/>
<path d="M0 0 C0.99 0.33 1.98 0.66 3 1 C2.70703125 2.98567708 2.4140625 4.97135417 2.12109375 6.95703125 C1.86095201 9.2025342 1.86095201 9.2025342 3 12 C3.66 12.66 4.32 13.32 5 14 C4.34 14 3.68 14 3 14 C3 14.66 3 15.32 3 16 C-0.16115776 14.63016497 -0.9927092 14.0109362 -3 11 C-3.3468602 7.18453778 -3.53366895 4.86721204 -1.5 1.5625 C-1.005 1.046875 -0.51 0.53125 0 0 Z " fill="#A5A5A5" transform="translate(59,58)"/>
<path d="M0 0 C0.33 0 0.66 0 1 0 C1.04898438 0.99902344 1.09796875 1.99804688 1.1484375 3.02734375 C1.22320312 4.31769531 1.29796875 5.60804687 1.375 6.9375 C1.44460937 8.22527344 1.51421875 9.51304688 1.5859375 10.83984375 C1.72257812 11.88269531 1.85921875 12.92554687 2 14 C2.66 14.33 3.32 14.66 4 15 C4 12.36 4 9.72 4 7 C4.33 7 4.66 7 5 7 C5 9.64 5 12.28 5 15 C6.32 15.33 7.64 15.66 9 16 C9 14.02 9 12.04 9 10 C9.33 10 9.66 10 10 10 C10.12375 11.175625 10.12375 11.175625 10.25 12.375 C10.71229528 15.15242111 10.71229528 15.15242111 13.046875 16.1640625 C13.69140625 16.43992187 14.3359375 16.71578125 15 17 C9.22240116 17.12036664 3.72040011 16.8320582 -2 16 C-2 15.34 -2 14.68 -2 14 C-1.34 14 -0.68 14 0 14 C0 12.02 0 10.04 0 8 C-0.99 7.67 -1.98 7.34 -3 7 C-2.01 7 -1.02 7 0 7 C0 4.69 0 2.38 0 0 Z " fill="#515151" transform="translate(37,108)"/>
<path d="M0 0 C0.5775 0.226875 1.155 0.45375 1.75 0.6875 C1.75 1.3475 1.75 2.0075 1.75 2.6875 C1.09 2.6875 0.43 2.6875 -0.25 2.6875 C0.08 3.6775 0.41 4.6675 0.75 5.6875 C-1.8154594 8.2529594 -3.72686668 8.22796087 -7.25 8.6875 C-6.92 9.6775 -6.59 10.6675 -6.25 11.6875 C-6.58 12.6775 -6.91 13.6675 -7.25 14.6875 C-8.24 14.3575 -9.23 14.0275 -10.25 13.6875 C-9.64816251 11.66704558 -8.97693904 9.66638961 -8.25 7.6875 C-7.59 7.3575 -6.93 7.0275 -6.25 6.6875 C-6.25 5.3675 -6.25 4.0475 -6.25 2.6875 C-4.0985146 0.45917583 -3.1311405 -0.43488062 0 0 Z " fill="#AEAEAE" transform="translate(55.25,20.3125)"/>
<path d="M0 0 C2.88575819 0.39803561 3.82189513 0.79009069 5.75 3.0625 C6.36875 4.0215625 6.36875 4.0215625 7 5 C6.67 5.66 6.34 6.32 6 7 C5.34 7 4.68 7 4 7 C3.34 7.66 2.68 8.32 2 9 C0.02 8.01 -1.96 7.02 -4 6 C-2.68 4.02 -1.36 2.04 0 0 Z " fill="#EBEBEB" transform="translate(124,76)"/>
<path d="M0 0 C1.79158489 -0.02696365 3.58328473 -0.04637917 5.375 -0.0625 C6.37273437 -0.07410156 7.37046875 -0.08570312 8.3984375 -0.09765625 C11 0 11 0 13 1 C11.70700306 3.88437779 10.34058637 5.87219421 8 8 C8.33 6.68 8.66 5.36 9 4 C6.36 4 3.72 4 1 4 C0.67 2.68 0.34 1.36 0 0 Z " fill="#888888" transform="translate(104,75)"/>
<path d="M0 0 C1.11375 0.4640625 1.11375 0.4640625 2.25 0.9375 C4.86985352 2.02529857 4.86985352 2.02529857 7.1875 2.5 C9 3 9 3 11 5 C11.99 4.67 12.98 4.34 14 4 C14.66 4.33 15.32 4.66 16 5 C16 5.66 16 6.32 16 7 C15.34 7 14.68 7 14 7 C14 7.66 14 8.32 14 9 C8.13998008 8.706999 4.14453354 5.96570849 0 2 C0 1.34 0 0.68 0 0 Z " fill="#ECECEC" transform="translate(114,128)"/>
<path d="M0 0 C0.33 0.66 0.66 1.32 1 2 C2.32 2 3.64 2 5 2 C5 2.66 5 3.32 5 4 C3.02 4.66 1.04 5.32 -1 6 C-1 6.33 -1 6.66 -1 7 C-2.65 7.33 -4.3 7.66 -6 8 C-6 8.66 -6 9.32 -6 10 C-8.97 10.66 -11.94 11.32 -15 12 C-15 11.34 -15 10.68 -15 10 C-13.35 9.34 -11.7 8.68 -10 8 C-10 7.34 -10 6.68 -10 6 C-8.02 6 -6.04 6 -4 6 C-4 5.34 -4 4.68 -4 4 C-2.68 4 -1.36 4 0 4 C-0.33 3.01 -0.66 2.02 -1 1 C-0.67 0.67 -0.34 0.34 0 0 Z " fill="#5E5E5E" transform="translate(66,8)"/>
<path d="M0 0 C-1.32 0.33 -2.64 0.66 -4 1 C-3.67 3.31 -3.34 5.62 -3 8 C-4.98 8.66 -6.96 9.32 -9 10 C-9.33 12.31 -9.66 14.62 -10 17 C-9.01 17.33 -8.02 17.66 -7 18 C-8.32 18 -9.64 18 -11 18 C-11 15.36 -11 12.72 -11 10 C-11.99 9.67 -12.98 9.34 -14 9 C-13.01 9 -12.02 9 -11 9 C-11 7.02 -11 5.04 -11 3 C-10.67 3 -10.34 3 -10 3 C-10 4.65 -10 6.3 -10 8 C-8.35 7.67 -6.7 7.34 -5 7 C-5 5.35 -5 3.7 -5 2 C-5.66 2 -6.32 2 -7 2 C-7 1.34 -7 0.68 -7 0 C-3.86650268 -1.04449911 -3.01031744 -0.93423645 0 0 Z " fill="#464646" transform="translate(84,105)"/>
<path d="M0 0 C1.32 0.66 2.64 1.32 4 2 C3.67 3.32 3.34 4.64 3 6 C3.99 6.33 4.98 6.66 6 7 C6 7.66 6 8.32 6 9 C4.02 9.99 4.02 9.99 2 11 C2.66 11.45375 3.32 11.9075 4 12.375 C4.66 12.91125 5.32 13.4475 6 14 C6 14.66 6 15.32 6 16 C5.360625 16.12375 4.72125 16.2475 4.0625 16.375 C3.381875 16.58125 2.70125 16.7875 2 17 C1.67 17.66 1.34 18.32 1 19 C1 18.01 1 17.02 1 16 C1.66 15.67 2.32 15.34 3 15 C1.68 14.01 0.36 13.02 -1 12 C-0.67 11.01 -0.34 10.02 0 9 C0.66 8.67 1.32 8.34 2 8 C1.67 7.05125 1.34 6.1025 1 5.125 C0 2 0 2 0 0 Z " fill="#5A5A5A" transform="translate(98,30)"/>
<path d="M0 0 C0.66 0.28875 1.32 0.5775 2 0.875 C4.4392433 1.78971624 6.53379737 2.31621257 9.0625 2.8125 C12.29758561 3.57693422 13.00767024 4.00767024 15.5 6.5 C17 9 17 9 17 11 C16.34 11 15.68 11 15 11 C14.443125 9.7934375 14.443125 9.7934375 13.875 8.5625 C12.30777176 5.86762813 12.30777176 5.86762813 10.02734375 5.4453125 C8.02626435 5.21238262 6.01215861 5.09895862 4 5 C4.99 6.485 4.99 6.485 6 8 C3.69 7.34 1.38 6.68 -1 6 C-0.649375 5.38125 -0.29875 4.7625 0.0625 4.125 C0.371875 3.42375 0.68125 2.7225 1 2 C0.67 1.34 0.34 0.68 0 0 Z " fill="#676767" transform="translate(101,55)"/>
<path d="M0 0 C2.6875 0.3125 2.6875 0.3125 5 1 C4.4225 1.185625 3.845 1.37125 3.25 1.5625 C-1.50916532 4.60307784 -3.07115477 9.67420511 -4.25 14.9375 C-4.51181006 16.28943301 -4.76613269 17.64295415 -5 19 C-5.33 19 -5.66 19 -6 19 C-6.34969637 12.47233435 -5.86235602 6.48460733 -1.5625 1.25 C-1.046875 0.8375 -0.53125 0.425 0 0 Z " fill="#383838" transform="translate(49,74)"/>
<path d="M0 0 C2.31 0 4.62 0 7 0 C7 1.98 7 3.96 7 6 C4.69 6 2.38 6 0 6 C0 4.02 0 2.04 0 0 Z " fill="#F0F0F0" transform="translate(52,109)"/>
<path d="M0 0 C0.66 0.33 1.32 0.66 2 1 C1.360625 1.78375 0.72125 2.5675 0.0625 3.375 C-2.78008655 7.55350178 -2.80539194 12.07641598 -3 17 C-3.99 16.67 -4.98 16.34 -6 16 C-6.66791182 9.58804648 -4.80087659 6.10937508 -1 1 C-0.67 0.67 -0.34 0.34 0 0 Z " fill="#404040" transform="translate(33,62)"/>
<path d="M0 0 C1.67542976 0.28604898 3.34385343 0.61781233 5 1 C5 2.98 5 4.96 5 7 C3.02 7 1.04 7 -1 7 C-1.04254356 5.00045254 -1.04080783 2.99958364 -1 1 C-0.67 0.67 -0.34 0.34 0 0 Z " fill="#F3F3F3" transform="translate(61,108)"/>
<path d="M0 0 C1.65 0 3.3 0 5 0 C5 2.31 5 4.62 5 7 C3.35 7.33 1.7 7.66 0 8 C0 5.36 0 2.72 0 0 Z " fill="#F3F3F3" transform="translate(61,116)"/>
<path d="M0 0 C1.98 0 3.96 0 6 0 C6 2.31 6 4.62 6 7 C4.35 7 2.7 7 1 7 C0.67 4.69 0.34 2.38 0 0 Z " fill="#F8F8F8" transform="translate(53,117)"/>
<path d="M0 0 C2.70185122 0.90061707 5.35569723 1.94227889 8 3 C7.34 6.63 6.68 10.26 6 14 C5.34 12.68 4.68 11.36 4 10 C3.34 9.01 2.68 8.02 2 7 C1.6278958 5.67696283 1.29369827 4.34262065 1 3 C0.67 2.01 0.34 1.02 0 0 Z " fill="#D8D8D8" transform="translate(11,95)"/>
<path d="M0 0 C1.65 0 3.3 0 5 0 C6.03115279 3.26913624 5.9638984 5.86041348 5.5625 9.25 C5.46066406 10.14203125 5.35882813 11.0340625 5.25390625 11.953125 C5.17011719 12.62859375 5.08632812 13.3040625 5 14 C2.43383368 10.15075052 2.44902324 7.5650696 2 3 C1.01 2.67 0.02 2.34 -1 2 C-0.67 1.34 -0.34 0.68 0 0 Z " fill="#EAEAEA" transform="translate(127,85)"/>
<path d="M0 0 C0 2.64 0 5.28 0 8 C-1.65 8 -3.3 8 -5 8 C-5 5.69 -5 3.38 -5 1 C-3 0 -3 0 0 0 Z " fill="#F1F1F1" transform="translate(73,115)"/>
<path d="M0 0 C0.66 0.33 1.32 0.66 2 1 C1.38511719 1.44730469 0.77023438 1.89460937 0.13671875 2.35546875 C-4.19352065 5.59451545 -7.44139099 8.15210925 -10 13 C-12.1875 14.8125 -12.1875 14.8125 -14 16 C-14.33 15.34 -14.66 14.68 -15 14 C-10.50891698 8.47035403 -5.87874404 4.03113877 0 0 Z " fill="#E6E6E6" transform="translate(45,10)"/>
<path d="M0 0 C-0.33 0.99 -0.66 1.98 -1 3 C-2.2375 2.938125 -3.475 2.87625 -4.75 2.8125 C-10.747766 2.78380256 -16.2669714 4.37030659 -22 6 C-17.18729119 0.11596903 -7.16337834 -0.48841216 0 0 Z " fill="#C4C4C4" transform="translate(72,3)"/>
<path d="M0 0 C2.6875 0.3125 2.6875 0.3125 5 1 C5 2.32 5 3.64 5 5 C3.02 5.99 3.02 5.99 1 7 C-0.32 5.68 -1.64 4.36 -3 3 C-1.8125 1.4375 -1.8125 1.4375 0 0 Z " fill="#F5F5F5" transform="translate(18,64)"/>
<path d="M0 0 C0 2.31 0 4.62 0 7 C-1.65 7.33 -3.3 7.66 -5 8 C-5 5.69 -5 3.38 -5 1 C-3 0 -3 0 0 0 Z " fill="#F8F8F8" transform="translate(85,112)"/>
<path d="M0 0 C0.99 0.33 1.98 0.66 3 1 C3 1.66 3 2.32 3 3 C2.48953125 2.83628906 1.9790625 2.67257813 1.453125 2.50390625 C-1.81291828 1.83301519 -4.9186747 1.9066544 -8.25 1.9375 C-10.14492187 1.95103516 -10.14492187 1.95103516 -12.078125 1.96484375 C-13.04234375 1.97644531 -14.0065625 1.98804687 -15 2 C-12.18654465 -1.25168827 -10.0796676 -1.62408325 -5.9296875 -2.01171875 C-3.48228339 -1.99685597 -2.02364387 -1.34909591 0 0 Z " fill="#414141" transform="translate(86,90)"/>
<path d="M0 0 C1.65 0 3.3 0 5 0 C5 2.31 5 4.62 5 7 C3.35 6.67 1.7 6.34 0 6 C0 4.02 0 2.04 0 0 Z " fill="#F2F2F2" transform="translate(47,117)"/>
<path d="M0 0 C0 1.98 0 3.96 0 6 C-1.98 6 -3.96 6 -6 6 C-6 4.35 -6 2.7 -6 1 C-3 0 -3 0 0 0 Z " fill="#E9E9E9" transform="translate(73,108)"/>
<path d="M0 0 C2.0625 0.4375 2.0625 0.4375 4 1 C4 2.98 4 4.96 4 7 C2.35 7 0.7 7 -1 7 C-1.04254356 5.00045254 -1.04080783 2.99958364 -1 1 C-0.67 0.67 -0.34 0.34 0 0 Z " fill="#F6F6F6" transform="translate(47,108)"/>
<path d="M0 0 C0.66 0 1.32 0 2 0 C2.98386923 4.05846056 3.3148325 7.82846941 3 12 C2.01 12.66 1.02 13.32 0 14 C0 10.37 0 6.74 0 3 C-0.66 2.67 -1.32 2.34 -2 2 C-1.34 1.34 -0.68 0.68 0 0 Z " fill="#4C4C4C" transform="translate(21,69)"/>
<path d="M0 0 C2.97851562 0.43945312 2.97851562 0.43945312 5.95703125 0.87890625 C8.2025342 1.13904799 8.2025342 1.13904799 11 0 C10.67 0.99 10.34 1.98 10 3 C8.22265625 3.80078125 8.22265625 3.80078125 6.0625 4.3125 C5.35222656 4.49425781 4.64195313 4.67601563 3.91015625 4.86328125 C2.96462891 4.93095703 2.96462891 4.93095703 2 5 C1.34 4.34 0.68 3.68 0 3 C0 2.01 0 1.02 0 0 Z " fill="#DBDBDB" transform="translate(15,111)"/>
<path d="M0 0 C1.32 0.66 2.64 1.32 4 2 C3.67 2.99 3.34 3.98 3 5 C2.01 5.33 1.02 5.66 0 6 C0.33 7.32 0.66 8.64 1 10 C0.34 10 -0.32 10 -1 10 C-1.33 10.66 -1.66 11.32 -2 12 C-2 9.03 -2 6.06 -2 3 C-1.01 2.67 -0.02 2.34 1 2 C0.67 1.34 0.34 0.68 0 0 Z " fill="#6B6B6B" transform="translate(48,35)"/>
<path d="M0 0 C1.5843317 0.08768248 3.16753567 0.19587329 4.75 0.3125 C6.07257813 0.39951172 6.07257813 0.39951172 7.421875 0.48828125 C10.32303774 1.0641181 11.79225607 2.07596148 14 4 C13.01 4 12.02 4 11 4 C10.67 4.99 10.34 5.98 10 7 C9.34 6.67 8.68 6.34 8 6 C8 5.34 8 4.68 8 4 C7.236875 3.71125 6.47375 3.4225 5.6875 3.125 C3 2 3 2 0 0 Z " fill="#C0C0C0" transform="translate(80,4)"/>
<path d="M0 0 C1.32 0 2.64 0 4 0 C4 2.31 4 4.62 4 7 C2.68 6.67 1.36 6.34 0 6 C0 4.02 0 2.04 0 0 Z " fill="#ECECEC" transform="translate(42,117)"/>
<path d="M0 0 C0.66 0.33 1.32 0.66 2 1 C2.4140625 3.28515625 2.4140625 3.28515625 2.625 6.0625 C2.69976562 6.98160156 2.77453125 7.90070312 2.8515625 8.84765625 C2.92503906 9.91306641 2.92503906 9.91306641 3 11 C2.01 10.67 1.02 10.34 0 10 C-1.125 3.375 -1.125 3.375 0 0 Z " fill="#525252" transform="translate(47,47)"/>
<path d="M0 0 C0.66 0 1.32 0 2 0 C2.33 1.32 2.66 2.64 3 4 C1.02 4.99 1.02 4.99 -1 6 C-0.67 6.99 -0.34 7.98 0 9 C-0.33 9.99 -0.66 10.98 -1 12 C-1.99 11.67 -2.98 11.34 -4 11 C-3.39816251 8.97954558 -2.72693904 6.97888961 -2 5 C-1.34 4.67 -0.68 4.34 0 4 C0 2.68 0 1.36 0 0 Z " fill="#626262" transform="translate(49,23)"/>
<path d="M0 0 C0.66 0 1.32 0 2 0 C1.67 2.31 1.34 4.62 1 7 C-0.32 7 -1.64 7 -3 7 C-3.66 6.01 -4.32 5.02 -5 4 C-4.01 3.67 -3.02 3.34 -2 3 C-1.34 3.33 -0.68 3.66 0 4 C0 2.68 0 1.36 0 0 Z " fill="#D9D9D9" transform="translate(139,112)"/>
<path d="M0 0 C0 1.65 0 3.3 0 5 C-1.65 5.33 -3.3 5.66 -5 6 C-5 4.35 -5 2.7 -5 1 C-2 0 -2 0 0 0 Z " fill="#EFEFEF" transform="translate(79,107)"/>
<path d="M0 0 C1.65 0 3.3 0 5 0 C4.67 1.65 4.34 3.3 4 5 C2.68 5.33 1.36 5.66 0 6 C0 4.02 0 2.04 0 0 Z " fill="#F5F5F5" transform="translate(80,106)"/>
<path d="M0 0 C0.33 0 0.66 0 1 0 C1.33 4.95 1.66 9.9 2 15 C0.68 15.33 -0.64 15.66 -2 16 C-2 15.34 -2 14.68 -2 14 C-1.34 14 -0.68 14 0 14 C0 12.02 0 10.04 0 8 C-0.99 7.67 -1.98 7.34 -3 7 C-2.01 7 -1.02 7 0 7 C0 4.69 0 2.38 0 0 Z " fill="#5B5B5B" transform="translate(37,108)"/>
<path d="M0 0 C0.33 1.32 0.66 2.64 1 4 C2.65 4 4.3 4 6 4 C6 4.66 6 5.32 6 6 C2.62182575 6.84454356 0.32534757 7.10844919 -3 6 C-3 5.34 -3 4.68 -3 4 C-2.01 4 -1.02 4 0 4 C0 2.68 0 1.36 0 0 Z " fill="#7A7A7A" transform="translate(45,111)"/>
<path d="M0 0 C0.598125 0.20625 1.19625 0.4125 1.8125 0.625 C1.8125 1.285 1.8125 1.945 1.8125 2.625 C1.1525 2.625 0.4925 2.625 -0.1875 2.625 C-0.1875 3.285 -0.1875 3.945 -0.1875 4.625 C-3.1575 4.13 -3.1575 4.13 -6.1875 3.625 C-4.74381887 0.73763775 -3.28406529 -0.56298262 0 0 Z " fill="#E3E3E3" transform="translate(128.1875,132.375)"/>
<path d="M0 0 C0.99 0 1.98 0 3 0 C3 2.31 3 4.62 3 7 C2.01 7 1.02 7 0 7 C0 4.69 0 2.38 0 0 Z " fill="#F6F6F6" transform="translate(42,108)"/>
<path d="M0 0 C0.33 0.66 0.66 1.32 1 2 C-2.3 2.33 -5.6 2.66 -9 3 C-7 0 -7 0 -4.5 -0.75 C-2 -1 -2 -1 0 0 Z " fill="#5D5D5D" transform="translate(76,106)"/>
<path d="M0 0 C0 0.99 0 1.98 0 3 C-2.5 5.1875 -2.5 5.1875 -5 7 C-5.33 5.68 -5.66 4.36 -6 3 C-5.34 3 -4.68 3 -4 3 C-4 2.34 -4 1.68 -4 1 C-2 0 -2 0 0 0 Z " fill="#EEEEEE" transform="translate(61,55)"/>
<path d="M0 0 C0.99 0 1.98 0 3 0 C3 1.98 3 3.96 3 6 C2.01 6 1.02 6 0 6 C0 4.02 0 2.04 0 0 Z " fill="#DCDCDC" transform="translate(34,116)"/>
<path d="M0 0 C1.98 0.99 1.98 0.99 4 2 C3.67 3.32 3.34 4.64 3 6 C3.66 6.33 4.32 6.66 5 7 C4.01 7.495 4.01 7.495 3 8 C2.34 7.67 1.68 7.34 1 7 C0.59270772 4.67843403 0.25561323 2.3431213 0 0 Z " fill="#757575" transform="translate(98,30)"/>
<path d="M0 0 C0.99 0 1.98 0 3 0 C3 1.98 3 3.96 3 6 C2.01 5.67 1.02 5.34 0 5 C0 3.35 0 1.7 0 0 Z " fill="#E4E4E4" transform="translate(38,117)"/>
<path d="M0 0 C0 1.32 0 2.64 0 4 C-0.99 3.67 -1.98 3.34 -3 3 C-3.33 2.34 -3.66 1.68 -4 1 C-4.99 1.33 -5.98 1.66 -7 2 C-7 1.34 -7 0.68 -7 0 C-4.3333581 -1.33332095 -2.83319697 -0.67102033 0 0 Z " fill="#D7D7D7" transform="translate(23,65)"/>
</svg>
